<svg xmlns="http://www.w3.org/2000/svg" viewBox="0 0 64 64" width="64" height="64">
  <defs>
    <linearGradient id="shieldGrad" x1="0%" y1="0%" x2="100%" y2="100%">
      <stop offset="0%" stop-color="#1e3a8a"/>
      <stop offset="100%" stop-color="#0f172a"/>
    </linearGradient>
    <linearGradient id="goldGrad" x1="0%" y1="0%" x2="100%" y2="100%">
      <stop offset="0%" stop-color="#fbbf24"/>
      <stop offset="100%" stop-color="#d97706"/>
    </linearGradient>
  </defs>
  <!-- Outer Shield -->
  <path d="M 32 6 L 54 14 C 54 38 42 52 32 58 C 22 52 10 38 10 14 Z" fill="url(#shieldGrad)" stroke="url(#goldGrad)" stroke-width="2.5" stroke-linejoin="round"/>
  <!-- Inner Shield Accent -->
  <path d="M 32 11 L 49 17 C 49 37 39 48 32 53 C 25 48 15 37 15 17 Z" fill="none" stroke="#38bdf8" stroke-width="1" opacity="0.6"/>
  <!-- Central Star / Emblem -->
  <path d="M 32 20 L 34.5 27.5 L 42 27.5 L 36 32 L 38.5 39.5 L 32 35 L 25.5 39.5 L 28 32 L 22 27.5 L 29.5 27.5 Z" fill="url(#goldGrad)"/>
  <!-- KSP Accent Dot -->
  <circle cx="32" cy="44" r="2.5" fill="#38bdf8"/>
</svg>
